<svg width="614" height="59" viewBox="0 0 614 59" fill="none" xmlns="http://www.w3.org/2000/svg">
<path d="M28.1487 4.00924H45.6087V53.6292H30.2487L19.9287 36.5892H18.6687V53.5692H0.908672V4.00924H16.8087L26.8287 20.9292H28.1487V4.00924ZM90.1948 3.76925V21.1092H79.9348V53.6292H60.0748V21.1092H49.8148V3.76925H90.1948ZM130.726 20.9292L136.786 25.8492V44.9892L129.526 51.7692H125.146V56.6292H106.966V51.7692H95.6857V37.6692H117.106V34.6092H101.806L95.7457 29.6292V11.4492L103.006 4.66925H106.966V0.229247H125.146V4.66925H135.466V17.8692H114.166V20.9292H130.726ZM180.08 2.68925L186.32 8.92925V46.7292L178.52 54.0492H144.5V38.4492H168.5V34.9692H147.92L143.3 30.7092V8.92925L149.54 2.68925H180.08ZM160.28 22.4292H168.5V17.6292H160.28V22.4292ZM231.766 28.1292L235.906 32.3292V48.1092L229.606 54.2892H198.526L192.226 48.1092V32.3292L196.366 28.1292L193.486 25.3692V8.86925L199.906 2.68925H228.226L234.646 8.86925V25.3692L231.766 28.1292ZM209.986 16.4892V21.7092H218.206V16.4892H209.986ZM218.686 40.1292V34.9092H209.506V40.1292H218.686ZM282.839 2.80925V19.8492L266.699 54.1692H246.299V51.7692L260.639 21.6492V20.4492H241.199V2.80925H282.839ZM288.502 38.0892H303.982V46.4292L297.022 58.3092H288.502V38.0892ZM348.163 22.0092L352.783 26.2692V47.9292L346.543 54.1692H316.063L309.823 47.9292V10.4292L317.623 2.68925H351.403V17.8692H327.643V22.0092H348.163ZM335.863 39.7092V34.7892H327.643V39.7092H335.863ZM358.515 53.9292V38.2092H382.095V34.5492H358.635V2.50925H400.035V17.8092H375.555V21.2292H395.235L401.115 26.5092V48.2892L395.235 53.9292H358.515ZM406.796 53.9292V38.2092H430.376V34.5492H406.916V2.50925H448.316V17.8092H423.836V21.2292H443.516L449.396 26.5092V48.2892L443.516 53.9292H406.796ZM455.377 38.0892H470.857V46.4292L463.897 58.3092H455.377V38.0892ZM516.238 28.1292L520.378 32.3292V48.1092L514.078 54.2892H482.998L476.698 48.1092V32.3292L480.838 28.1292L477.958 25.3692V8.86925L484.378 2.68925H512.698L519.118 8.86925V25.3692L516.238 28.1292ZM494.458 16.4892V21.7092H502.678V16.4892H494.458ZM503.158 40.1292V34.9092H493.978V40.1292H503.158ZM567.311 2.80925V19.8492L551.171 54.1692H530.771V51.7692L545.111 21.6492V20.4492H525.671V2.80925H567.311ZM572.675 54.0492V38.2092H594.455V34.3692H573.815V21.8892H594.455V18.1092H572.975V2.56925H612.815V23.3292L609.455 27.1692L613.715 31.0692V48.4092L608.075 54.0492H572.675Z"/>
</svg>
