<svg width="40" height="40" xmlns="http://www.w3.org/2000/svg">
<path d="M19.5 0.479248C9.15947 0.479248 0.75 8.88871 0.75 19.2292C0.75 29.5698 9.15947 37.9792 19.5 37.9792C29.8405 37.9792 38.25 29.5698 38.25 19.2292C38.25 8.88871 29.8405 0.479248 19.5 0.479248ZM19.5 2.97925C28.4894 2.97925 35.7598 10.2398 35.7598 19.2292C35.7598 28.2187 28.4894 35.489 19.5 35.489C10.5106 35.489 3.25 28.2187 3.25 19.2292C3.25 10.2398 10.5106 2.97925 19.5 2.97925ZM19.4829 9.23657C19.1527 9.24239 18.8382 9.37866 18.6081 9.61561C18.378 9.85257 18.251 10.171 18.2549 10.5012V11.5535C16.2366 11.9321 14.5098 13.2318 14.5098 15.4841C14.5098 17.0466 15.2142 18.3104 16.1602 19.0461C17.1062 19.7819 18.1743 20.1082 19.1118 20.4207C20.0493 20.7332 20.8586 21.0319 21.3188 21.3899C21.7791 21.7479 22 22.0491 22 22.9866C22 25.0699 17.0098 25.0699 17.0098 22.9866C17.0135 22.8201 16.9839 22.6545 16.9227 22.4996C16.8615 22.3448 16.7701 22.2036 16.6536 22.0846C16.5372 21.9655 16.3981 21.871 16.2446 21.8064C16.0911 21.7418 15.9263 21.7085 15.7598 21.7085C15.5932 21.7085 15.4284 21.7418 15.2749 21.8064C15.1214 21.871 14.9824 21.9655 14.8659 22.0846C14.7495 22.2036 14.658 22.3448 14.5968 22.4996C14.5357 22.6545 14.5061 22.8201 14.5098 22.9866C14.5098 25.2372 16.2381 26.5393 18.2549 26.9197V27.967C18.2512 28.1335 18.2808 28.2991 18.3419 28.454C18.4031 28.6088 18.4946 28.75 18.611 28.869C18.7275 28.9881 18.8665 29.0827 19.02 29.1472C19.1735 29.2118 19.3384 29.2451 19.5049 29.2451C19.6714 29.2451 19.8363 29.2118 19.9897 29.1472C20.1432 29.0827 20.2823 28.9881 20.3987 28.869C20.5152 28.75 20.6067 28.6088 20.6678 28.454C20.729 28.2991 20.7586 28.1335 20.7549 27.967V26.9197C22.772 26.5395 24.5024 25.2375 24.5024 22.9866C24.5024 21.4241 23.7956 20.1603 22.8496 19.4246C21.9036 18.6888 20.8354 18.3601 19.8979 18.0476C18.9604 17.7351 18.1512 17.4388 17.6909 17.0808C17.2307 16.7228 17.0098 16.4216 17.0098 15.4841C17.0098 13.4008 22 13.4008 22 15.4841C22 15.816 22.1318 16.1342 22.3665 16.3689C22.6011 16.6035 22.9194 16.7353 23.2512 16.7353C23.5831 16.7353 23.9013 16.6035 24.136 16.3689C24.3706 16.1342 24.5024 15.816 24.5024 15.4841C24.5024 13.2351 22.7714 11.9368 20.7549 11.5559V10.5012C20.7568 10.334 20.7252 10.168 20.6619 10.0132C20.5986 9.85843 20.5049 9.71791 20.3863 9.59998C20.2677 9.48206 20.1266 9.38914 19.9714 9.32671C19.8163 9.26429 19.6501 9.23364 19.4829 9.23657Z"/>
</svg>
